<svg width="470" height="112" viewBox="0 0 470 112" fill="none" xmlns="http://www.w3.org/2000/svg">
<g clip-path="url(#clip0_3_27)">
<path d="M0.257324 49.5015H109.587V59.2994H0.257324V49.5015Z" fill="white"/>
<path d="M187.372 6.60617H220.589V14.8507H187.372V6.60617ZM187.372 34.0879H220.589V42.0934H187.372V34.0879ZM187.252 61.9281H220.828V70.0531H187.252V61.9281ZM216.526 6.60617H225.249V99.2076C225.249 104.345 224.054 107.094 220.589 108.527C217.243 109.961 211.628 110.2 202.786 110.2C202.547 107.691 201.232 103.748 200.037 101.478C206.37 101.597 212.344 101.597 214.137 101.478C215.929 101.478 216.526 100.88 216.526 99.0881V6.60617ZM183.668 6.60617H192.151V49.9795C192.151 68.3803 190.718 94.1892 179.964 111.156C178.411 109.483 174.826 106.855 172.795 106.018C182.831 90.0072 183.668 67.3049 183.668 49.9795V6.60617ZM120.579 16.643H177.813V24.529H120.579V16.643ZM134.679 35.1633H164.909V42.4519H134.679V35.1633ZM134.679 54.1615H165.028V61.3306H134.679V54.1615ZM119.026 73.3987H177.813V81.4042H119.026V73.3987ZM130.736 2.06571H138.98V76.6248H130.736V2.06571ZM160.727 2.06571H168.971V76.6248H160.727V2.06571ZM135.635 84.0329L144.238 86.4226C139.817 95.5035 132.886 104.704 126.434 110.678C124.761 109.244 121.296 106.616 119.146 105.421C125.837 100.044 132.05 92.0385 135.635 84.0329ZM152.841 87.737L159.771 84.0329C164.431 89.4098 170.047 96.8179 172.436 101.717L165.148 106.018C162.877 101.239 157.501 93.3528 152.841 87.737Z" fill="white"/>
<path d="M239.229 49.5015H348.558V59.2994H239.229V49.5015Z" fill="white"/>
<path d="M365.047 97.5348C385.838 97.0569 419.174 95.862 450.241 94.4282L449.882 102.673C419.772 104.226 387.391 105.66 366.242 106.377L365.047 97.5348ZM363.972 60.6137H463.025V69.0972H363.972V60.6137ZM384.404 37.7919H441.518V46.1559H384.404V37.7919ZM396.711 65.9906L406.748 68.8582C401.251 80.3289 394.321 94.3087 388.466 103.27L380.461 100.641C386.077 91.3215 393.126 76.5053 396.711 65.9906ZM425.148 78.6561L432.796 74.5935C443.788 84.0329 455.498 96.9374 461.114 106.018L452.989 110.917C447.612 101.956 435.783 88.2149 425.148 78.6561ZM412.722 9.47382C402.924 24.0511 383.329 40.4206 363.016 50.5769C361.941 48.4262 359.67 45.2001 357.759 43.2883C378.31 33.4905 398.264 16.165 407.584 0.87085H416.785C429.45 18.5547 450.36 34.2074 469.358 41.9739C467.207 44.1247 465.057 47.3508 463.503 49.9795C444.864 41.0181 423.834 25.007 412.722 9.47382Z" fill="white"/>
</g>
<defs>
<clipPath id="clip0_3_27">
<rect width="469.101" height="110.285" fill="white" transform="translate(0.257324 0.87085)"/>
</clipPath>
</defs>
</svg>
